<?xml version="1.0" encoding="iso-8859-1"?>
<!-- Generator: Adobe Illustrator 19.0.0, SVG Export Plug-In . SVG Version: 6.00 Build 0)  -->
<svg version="1.1" id="Capa_1" xmlns="http://www.w3.org/2000/svg" xmlns:xlink="http://www.w3.org/1999/xlink" x="0px" y="0px"
	 viewBox="0 0 512 512" style="enable-background:new 0 0 512 512;" xml:space="preserve">
<rect x="7.604" y="437.26" style="fill:#5E4C36;" width="496.79" height="32.575"/>
<rect x="7.604" y="437.26" style="fill:#806749;" width="496.79" height="16.364"/>
<rect x="99.21" y="132.31" style="fill:#ACABB1;" width="85.36" height="304.94"/>
<rect x="31.984" y="88.05" style="fill:#A258CB;" width="67.22" height="349.2"/>
<g>
	<polygon style="fill:#6F2C93;" points="82.391,350.165 82.391,419.911 31.984,419.911 31.984,437.254 82.391,437.254 
		82.391,437.883 99.204,437.883 99.204,437.254 99.204,419.911 99.204,350.165 	"/>
	<rect x="31.984" y="175.77" style="fill:#6F2C93;" width="67.22" height="174.39"/>
	<rect x="82.4" y="88.05" style="fill:#6F2C93;" width="16.813" height="87.72"/>
</g>
<rect x="82.4" y="175.77" style="fill:#51216D;" width="16.813" height="177.14"/>
<rect x="184.56" y="62.961" style="fill:#FECE00;" width="67.22" height="374.3"/>
<rect x="251.78" y="42.17" style="fill:#AD2201;" width="76.82" height="395.08"/>
<rect x="328.61" y="88.05" style="fill:#016EF1;" width="100.3" height="349.2"/>
<rect x="428.9" y="155.79" style="fill:#9CDD03;" width="51.11" height="281.47"/>
<g>
	<rect x="428.9" y="421.26" style="fill:#86BC06;" width="51.11" height="15.998"/>
	<rect x="428.9" y="155.79" style="fill:#86BC06;" width="15.52" height="284.44"/>
</g>
<rect x="343.5" y="87.62" style="fill:#2487FF;" width="70.52" height="332.84"/>
<circle style="fill:#BDDBFF;" cx="378.76" cy="197.79" r="28.14"/>
<rect x="267.65" y="42.17" style="fill:#CD2A01;" width="45.1" height="377.48"/>
<g>
	<rect x="251.78" y="119.49" style="fill:#FEBCAC;" width="76.82" height="24.546"/>
	<rect x="251.78" y="335.37" style="fill:#FEBCAC;" width="76.82" height="24.546"/>
</g>
<rect x="199.65" y="62.961" style="fill:#FEDA44;" width="37.05" height="356.95"/>
<rect x="114.13" y="132.31" style="fill:#E0E0E2;" width="55.51" height="287.72"/>
<path d="M487.62,429.65V148.182h-51.109V80.449H336.213V34.568h-92.031v20.785H176.96v69.355h-70.151V80.449H24.38V429.65H0v47.782
	h512V429.65H487.62z M472.412,163.39v266.26h-35.901V163.39H472.412z M421.303,95.657v52.525V429.65h-85.09v-62.119v-39.759V151.653
	v-39.759V95.657H421.303z M259.389,367.531h61.615v62.119h-61.615V367.531z M259.389,127.103h61.615v9.343h-61.615V127.103z
	 M321.005,151.653v176.119H259.39V151.653H321.005z M259.389,342.98h61.615v9.343h-61.615V342.98z M259.389,49.776h61.615v30.673
	v31.446h-61.615V55.353V49.776z M192.168,70.561h52.013v41.334v39.759v176.119v39.759v62.119h-52.013V124.708V70.561z
	 M176.96,429.65h-11.97V139.916h11.971L176.96,429.65L176.96,429.65z M133.987,429.65V139.916h15.795V429.65H133.987z
	 M118.779,139.916V429.65h-11.971V139.916H118.779z M91.601,342.561H39.588V183.374h52.013V342.561z M91.601,95.657v29.051v43.458
	H39.588V95.657H91.601z M39.588,357.769h52.013v71.881H39.588V357.769z M496.792,462.224H15.208v-17.366h9.172h67.221h15.208h70.151
	h15.208h52.013h15.208h61.615h15.208h85.09h15.208h51.109h9.172L496.792,462.224L496.792,462.224z"/>
<path d="M378.758,233.535c19.708,0,35.744-16.034,35.744-35.744s-16.034-35.744-35.744-35.744s-35.744,16.034-35.744,35.744
	S359.05,233.535,378.758,233.535z M378.758,177.256c11.324,0,20.536,9.212,20.536,20.536s-9.212,20.536-20.536,20.536
	s-20.536-9.212-20.536-20.536S367.435,177.256,378.758,177.256z"/>
<rect x="350.61" y="288.92" width="56.28" height="15.208"/>
<rect x="350.61" y="314.82" width="56.28" height="15.208"/>
<rect x="350.61" y="340.74" width="56.28" height="15.208"/>
<g>
</g>
<g>
</g>
<g>
</g>
<g>
</g>
<g>
</g>
<g>
</g>
<g>
</g>
<g>
</g>
<g>
</g>
<g>
</g>
<g>
</g>
<g>
</g>
<g>
</g>
<g>
</g>
<g>
</g>
</svg>
